<svg width="214" height="72" viewBox="0 0 214 72" fill="none" xmlns="http://www.w3.org/2000/svg">
<rect width="214" height="71.6245" rx="32" fill="url(#paint0_linear_187_77)"/>
<rect x="4.36743" y="4.36734" width="205.265" height="62.0163" rx="30" fill="white"/>
<path d="M39.5156 39.3633V36.5801H37.543V34.1582H42.0352V40.8379C41.4818 41.3132 40.8698 41.6745 40.1992 41.9219C39.5352 42.1628 38.8223 42.2832 38.0605 42.2832C36.1725 42.2832 34.7142 41.6289 33.6855 40.3203C32.6569 39.0052 32.1426 37.14 32.1426 34.7246C32.1426 32.2702 32.6602 30.3952 33.6953 29.0996C34.737 27.804 36.2376 27.1562 38.1973 27.1562C38.7832 27.1562 39.3594 27.2409 39.9258 27.4102C40.4922 27.5729 41.0228 27.8105 41.5176 28.123V31.3164C41.1139 30.7956 40.6484 30.4049 40.1211 30.1445C39.6003 29.8776 39.0273 29.7441 38.4023 29.7441C37.3086 29.7441 36.4915 30.1576 35.9512 30.9844C35.4108 31.8047 35.1406 33.0514 35.1406 34.7246C35.1406 36.3457 35.401 37.5794 35.9219 38.4258C36.4427 39.2721 37.2012 39.6953 38.1973 39.6953C38.4967 39.6953 38.7572 39.6693 38.9785 39.6172C39.1999 39.5586 39.3789 39.474 39.5156 39.3633ZM53.8125 41.4629C53.1484 41.7363 52.4714 41.9414 51.7812 42.0781C51.0911 42.2148 50.362 42.2832 49.5938 42.2832C47.7643 42.2832 46.3646 41.7949 45.3945 40.8184C44.431 39.8353 43.9492 38.4225 43.9492 36.5801C43.9492 34.7962 44.4147 33.3867 45.3457 32.3516C46.2767 31.3164 47.5462 30.7988 49.1543 30.7988C50.7754 30.7988 52.0319 31.2806 52.9238 32.2441C53.8223 33.2012 54.2715 34.5521 54.2715 36.2969V37.459H46.8594C46.8659 38.3184 47.1198 38.9596 47.6211 39.3828C48.1224 39.806 48.8711 40.0176 49.8672 40.0176C50.5247 40.0176 51.1725 39.9232 51.8105 39.7344C52.4486 39.5456 53.1159 39.2461 53.8125 38.8359V41.4629ZM51.3906 35.3105C51.3776 34.5553 51.1823 33.9857 50.8047 33.6016C50.4336 33.2109 49.8835 33.0156 49.1543 33.0156C48.4967 33.0156 47.9727 33.2174 47.582 33.6211C47.1914 34.0182 46.9603 34.5846 46.8887 35.3203L51.3906 35.3105ZM61.8398 27.957V31.0625H65.5801V33.2598H61.8398V38.4355C61.8398 38.9238 61.957 39.2754 62.1914 39.4902C62.4323 39.6986 62.8294 39.8027 63.3828 39.8027H65.5801V42H63.1777C61.5371 42 60.4271 41.7396 59.8477 41.2188C59.2682 40.6914 58.9785 39.7181 58.9785 38.2988V33.2598H56.1855V31.0625H58.9785V27.957H61.8398ZM80.8828 29.959V27.4199H89.5645V29.959H86.6641V39.4609H89.5645V42H80.8828V39.4609H83.7832V29.959H80.8828ZM101.713 34.9004V42H98.8711V35.3398C98.8711 34.5456 98.7572 33.9792 98.5293 33.6406C98.3079 33.2956 97.9434 33.123 97.4355 33.123C96.9212 33.123 96.5143 33.3542 96.2148 33.8164C95.9219 34.2786 95.7754 34.9199 95.7754 35.7402V42H92.9336V31.0625H95.7754V32.7031C95.9772 32.0977 96.3223 31.6289 96.8105 31.2969C97.2988 30.9648 97.888 30.7988 98.5781 30.7988C99.6133 30.7988 100.395 31.1439 100.922 31.834C101.449 32.5176 101.713 33.5397 101.713 34.9004ZM114.564 31.0625L111.088 42H107.562L104.086 31.0625H106.986L109.32 39.5977L111.664 31.0625H114.564ZM121.371 33.123C120.688 33.123 120.15 33.4258 119.76 34.0312C119.369 34.6302 119.174 35.4668 119.174 36.541C119.174 37.6152 119.369 38.4551 119.76 39.0605C120.15 39.6595 120.688 39.959 121.371 39.959C122.061 39.959 122.602 39.6595 122.992 39.0605C123.383 38.4551 123.578 37.6152 123.578 36.541C123.578 35.4668 123.383 34.6302 122.992 34.0312C122.602 33.4258 122.061 33.123 121.371 33.123ZM116.312 36.541C116.312 34.7767 116.768 33.3802 117.68 32.3516C118.598 31.3164 119.828 30.7988 121.371 30.7988C122.921 30.7988 124.151 31.3164 125.062 32.3516C125.98 33.3802 126.439 34.7767 126.439 36.541C126.439 38.3053 125.98 39.7051 125.062 40.7402C124.151 41.7689 122.921 42.2832 121.371 42.2832C119.828 42.2832 118.598 41.7689 117.68 40.7402C116.768 39.7051 116.312 38.3053 116.312 36.541ZM131.186 37.4395V29.002H128.285V26.8047H134.047V37.4395C134.047 38.2988 134.18 38.9076 134.447 39.2656C134.714 39.6237 135.167 39.8027 135.805 39.8027H138.09V42H135.004C133.643 42 132.667 41.6484 132.074 40.9453C131.482 40.2422 131.186 39.0736 131.186 37.4395ZM150.717 31.0625L147.24 42H143.715L140.238 31.0625H143.139L145.473 39.5977L147.816 31.0625H150.717ZM162.27 41.4629C161.605 41.7363 160.928 41.9414 160.238 42.0781C159.548 42.2148 158.819 42.2832 158.051 42.2832C156.221 42.2832 154.822 41.7949 153.852 40.8184C152.888 39.8353 152.406 38.4225 152.406 36.5801C152.406 34.7962 152.872 33.3867 153.803 32.3516C154.734 31.3164 156.003 30.7988 157.611 30.7988C159.232 30.7988 160.489 31.2806 161.381 32.2441C162.279 33.2012 162.729 34.5521 162.729 36.2969V37.459H155.316C155.323 38.3184 155.577 38.9596 156.078 39.3828C156.579 39.806 157.328 40.0176 158.324 40.0176C158.982 40.0176 159.63 39.9232 160.268 39.7344C160.906 39.5456 161.573 39.2461 162.27 38.8359V41.4629ZM159.848 35.3105C159.835 34.5553 159.639 33.9857 159.262 33.6016C158.891 33.2109 158.34 33.0156 157.611 33.0156C156.954 33.0156 156.43 33.2174 156.039 33.6211C155.648 34.0182 155.417 34.5846 155.346 35.3203L159.848 35.3105ZM171.283 32.6152V26.8047H174.135V42H171.283V40.3789C170.977 41.0104 170.58 41.4857 170.092 41.8047C169.61 42.1237 169.04 42.2832 168.383 42.2832C167.133 42.2832 166.163 41.7819 165.473 40.7793C164.783 39.7767 164.438 38.3639 164.438 36.541C164.438 34.6921 164.786 33.2728 165.482 32.2832C166.186 31.2936 167.185 30.7988 168.48 30.7988C169.066 30.7988 169.59 30.9518 170.053 31.2578C170.521 31.5573 170.932 32.0098 171.283 32.6152ZM167.299 36.5605C167.299 37.6152 167.475 38.4421 167.826 39.041C168.178 39.64 168.663 39.9395 169.281 39.9395C169.9 39.9395 170.388 39.64 170.746 39.041C171.104 38.4421 171.283 37.6152 171.283 36.5605C171.283 35.5059 171.104 34.679 170.746 34.0801C170.388 33.4811 169.9 33.1816 169.281 33.1816C168.663 33.1816 168.178 33.4811 167.826 34.0801C167.475 34.679 167.299 35.5059 167.299 36.5605Z" fill="#161616"/>
<defs>
<linearGradient id="paint0_linear_187_77" x1="-4.92146e-07" y1="28.8488" x2="207.49" y2="34.2185" gradientUnits="userSpaceOnUse">
<stop stop-color="#77D4FB"/>
<stop offset="0.479167" stop-color="#0038E6"/>
<stop offset="1" stop-color="#B05EC8"/>
</linearGradient>
</defs>
</svg>
