<svg width="214" height="72" viewBox="0 0 214 72" fill="none" xmlns="http://www.w3.org/2000/svg">
<rect width="214" height="71.6245" rx="32" fill="url(#paint0_linear_197_165)"/>
<rect x="4.36735" y="4.36719" width="205.265" height="62.0163" rx="30" fill="white"/>
<path d="M71.9805 35.6035C70.5286 35.0501 69.5456 34.4707 69.0312 33.8652C68.5169 33.2533 68.2598 32.4329 68.2598 31.4043C68.2598 30.0827 68.6829 29.0443 69.5293 28.2891C70.3757 27.5339 71.5378 27.1562 73.0156 27.1562C73.6862 27.1562 74.3568 27.2344 75.0273 27.3906C75.6979 27.5404 76.362 27.765 77.0195 28.0645V30.877C76.401 30.4408 75.7728 30.1087 75.1348 29.8809C74.4967 29.653 73.8652 29.5391 73.2402 29.5391C72.5436 29.5391 72.0098 29.679 71.6387 29.959C71.2676 30.2389 71.082 30.6393 71.082 31.1602C71.082 31.5638 71.2155 31.8991 71.4824 32.166C71.7559 32.4264 72.3223 32.7161 73.1816 33.0352L74.4219 33.5039C75.5938 33.9336 76.4564 34.5033 77.0098 35.2129C77.5632 35.9225 77.8398 36.8177 77.8398 37.8984C77.8398 39.3698 77.4036 40.4701 76.5312 41.1992C75.6654 41.9219 74.3535 42.2832 72.5957 42.2832C71.873 42.2832 71.1471 42.1953 70.418 42.0195C69.6953 41.8503 68.9954 41.5964 68.3184 41.2578V38.2793C69.0866 38.8262 69.8288 39.2331 70.5449 39.5C71.2676 39.7669 71.9805 39.9004 72.6836 39.9004C73.3932 39.9004 73.9434 39.7409 74.334 39.4219C74.7246 39.0964 74.9199 38.6439 74.9199 38.0645C74.9199 37.6283 74.7897 37.2474 74.5293 36.9219C74.2689 36.5898 73.8913 36.3294 73.3965 36.1406L71.9805 35.6035ZM80.6133 38.1816V31.0625H83.4746V37.7422C83.4746 38.5299 83.5853 39.0931 83.8066 39.4316C84.028 39.7702 84.3958 39.9395 84.9102 39.9395C85.4245 39.9395 85.8249 39.7116 86.1113 39.2559C86.4043 38.8001 86.5508 38.1621 86.5508 37.3418V31.0625H89.4121V42H86.5508V40.3789C86.349 40.9844 86.0039 41.4531 85.5156 41.7852C85.0339 42.1172 84.4512 42.2832 83.7676 42.2832C82.7259 42.2832 81.9382 41.9382 81.4043 41.248C80.877 40.5579 80.6133 39.5358 80.6133 38.1816ZM99.4023 36.5605C99.4023 35.5059 99.2266 34.679 98.875 34.0801C98.5234 33.4811 98.0384 33.1816 97.4199 33.1816C96.8014 33.1816 96.3132 33.4811 95.9551 34.0801C95.597 34.679 95.418 35.5059 95.418 36.5605C95.418 37.6152 95.597 38.4421 95.9551 39.041C96.3132 39.64 96.8014 39.9395 97.4199 39.9395C98.0384 39.9395 98.5234 39.64 98.875 39.041C99.2266 38.4421 99.4023 37.6152 99.4023 36.5605ZM95.418 32.6152C95.7695 32.0098 96.1764 31.5573 96.6387 31.2578C97.1074 30.9518 97.6348 30.7988 98.2207 30.7988C99.5163 30.7988 100.512 31.2936 101.209 32.2832C101.912 33.2728 102.264 34.6921 102.264 36.541C102.264 38.3639 101.919 39.7767 101.229 40.7793C100.538 41.7819 99.5684 42.2832 98.3184 42.2832C97.6608 42.2832 97.0879 42.1237 96.5996 41.8047C96.1113 41.4857 95.7174 41.0104 95.418 40.3789V42H92.5664V26.8047H95.418V32.6152ZM109.891 32.1562C110.105 31.694 110.379 31.3522 110.711 31.1309C111.043 30.9095 111.45 30.7988 111.932 30.7988C112.876 30.7988 113.527 31.1243 113.885 31.7754C114.249 32.4264 114.432 33.7806 114.432 35.8379V42H112.088V34.9785C112.088 34.1647 112.026 33.6211 111.902 33.3477C111.779 33.0742 111.554 32.9375 111.229 32.9375C110.903 32.9375 110.675 33.0775 110.545 33.3574C110.415 33.6374 110.35 34.1777 110.35 34.9785V42H108.035V34.9785C108.035 34.1777 107.97 33.6374 107.84 33.3574C107.71 33.0775 107.482 32.9375 107.156 32.9375C106.831 32.9375 106.606 33.0742 106.482 33.3477C106.359 33.6211 106.297 34.1647 106.297 34.9785V42H103.953V31.0625H106.033V32.1953C106.196 31.7656 106.456 31.4271 106.814 31.1797C107.173 30.9258 107.573 30.7988 108.016 30.7988C108.458 30.7988 108.862 30.9323 109.227 31.1992C109.591 31.4596 109.812 31.7786 109.891 32.1562ZM117.361 31.0625H123.025V39.8027H126.58V42H116.6V39.8027H120.164V33.2598H117.361V31.0625ZM120.164 25.7402H123.025V29.0801H120.164V25.7402ZM133.992 27.957V31.0625H137.732V33.2598H133.992V38.4355C133.992 38.9238 134.109 39.2754 134.344 39.4902C134.585 39.6986 134.982 39.8027 135.535 39.8027H137.732V42H135.33C133.689 42 132.579 41.7396 132 41.2188C131.421 40.6914 131.131 39.7181 131.131 38.2988V33.2598H128.338V31.0625H131.131V27.957H133.992Z" fill="#161616"/>
<defs>
<linearGradient id="paint0_linear_197_165" x1="-4.92146e-07" y1="28.8488" x2="207.49" y2="34.2185" gradientUnits="userSpaceOnUse">
<stop stop-color="#77D4FB"/>
<stop offset="0.479167" stop-color="#0038E6"/>
<stop offset="1" stop-color="#B05EC8"/>
</linearGradient>
</defs>
</svg>
